<svg width="17" height="17" viewBox="0 0 17 17" fill="none" xmlns="http://www.w3.org/2000/svg">
<g id="icons8-edit 1">
<path id="Vector" d="M12.7002 2.1084C12.144 2.1084 11.5879 2.32422 11.1562 2.75586L2.75586 11.1562L2.72266 11.3223L2.1416 14.2441L1.97559 15.0244L2.75586 14.8584L5.67773 14.2773L5.84375 14.2441L14.2441 5.84375C15.1074 4.98047 15.1074 3.61914 14.2441 2.75586C13.8125 2.32422 13.2563 2.1084 12.7002 2.1084ZM12.7002 3.12109C12.9679 3.12109 13.2377 3.24353 13.4971 3.50293C14.0138 4.01965 14.0138 4.57996 13.4971 5.09668L13.1152 5.46191L11.5381 3.88477L11.9033 3.50293C12.1627 3.24353 12.4325 3.12109 12.7002 3.12109ZM10.791 4.63184L12.3682 6.20898L5.94336 12.6338C5.59473 11.9531 5.04688 11.4053 4.36621 11.0566L10.791 4.63184ZM3.68555 11.9199C4.32263 12.1772 4.82275 12.6774 5.08008 13.3145L3.33691 13.6631L3.68555 11.9199Z" fill="black"/>
</g>
</svg>
