<svg width="24" height="23" viewBox="0 0 24 23" fill="none" xmlns="http://www.w3.org/2000/svg">
<g id="icons8-google-logo 1">
<path id="Vector" d="M21.8055 9.62309H21V9.58332H12V13.4167H17.6515C16.827 15.6481 14.6115 17.25 12 17.25C8.6865 17.25 6 14.6754 6 11.5C6 8.32455 8.6865 5.74999 12 5.74999C13.5295 5.74999 14.921 6.30295 15.9805 7.20618L18.809 4.49553C17.023 2.90039 14.634 1.91666 12 1.91666C6.4775 1.91666 2 6.20759 2 11.5C2 16.7924 6.4775 21.0833 12 21.0833C17.5225 21.0833 22 16.7924 22 11.5C22 10.8574 21.931 10.2302 21.8055 9.62309Z" fill="#FFC107"/>
<path id="Vector_2" d="M3.153 7.03943L6.4385 9.34853C7.3275 7.23924 9.4805 5.74999 12 5.74999C13.5295 5.74999 14.921 6.30295 15.9805 7.20618L18.809 4.49553C17.023 2.90039 14.634 1.91666 12 1.91666C8.159 1.91666 4.828 3.9948 3.153 7.03943Z" fill="#FF3D00"/>
<path id="Vector_3" d="M12 21.0833C14.583 21.0833 16.93 20.136 18.7045 18.5955L15.6095 16.0856C14.6055 16.8144 13.3575 17.25 12 17.25C9.399 17.25 7.1905 15.6606 6.3585 13.4425L3.0975 15.8503C4.7525 18.9539 8.1135 21.0833 12 21.0833Z" fill="#4CAF50"/>
<path id="Vector_4" d="M21.8055 9.62311H21V9.58334H12V13.4167H17.6515C17.2555 14.4886 16.536 15.4129 15.608 16.0861L15.6095 16.0852L18.7045 18.595C18.4855 18.7857 22 16.2917 22 11.5C22 10.8574 21.931 10.2302 21.8055 9.62311Z" fill="#1976D2"/>
</g>
</svg>
